# xmcd
#
# Track frame offsets: 
#        150
#        19303
#        34284
#        51865
#        72327
#        86243
#        100988
#        119393
#        137983
#        149535
#        163152
#
# Disc length: 2411 seconds
#
# Revision: 1
# Processed by: cddbd v1.5.2PL0 Copyright (c) Steve Scherf et al.
# Submitted via: ExactAudioCopy v0.90b4
#
DISCID=aa09690b
DTITLE=Rascal Flatts - Melt
DYEAR=2002
DGENRE=Countryt
TTITLE0=These Days
TTITLE1=Too Good Is True
TTITLE2=Melt
TTITLE3=Mayberry
TTITLE4=Love You Out Loud
TTITLE5=Dry Country Girl
TTITLE6=Like I Am
TTITLE7=You
TTITLE8=Fallin' Upside Down
TTITLE9=Shine On
TTITLE10=My Worst Fear
EXTD=
EXTT0=
EXTT1=
EXTT2=
EXTT3=
EXTT4=
EXTT5=
EXTT6=
EXTT7=
EXTT8=
EXTT9=
EXTT10=
PLAYORDER=
